<mxfile host="app.diagrams.net" agent="Mozilla/5.0 (Windows NT 10.0; Win64; x64) AppleWebKit/537.36 (KHTML, like Gecko) Chrome/136.0.0.0 Safari/537.36" version="27.0.5">
  <diagram id="rfwBcuDWX9CCavypN6-m" name="Trang-2">
    <mxGraphModel dx="1226" dy="661" grid="1" gridSize="10" guides="1" tooltips="1" connect="1" arrows="1" fold="1" page="1" pageScale="1" pageWidth="827" pageHeight="1169" math="0" shadow="0">
      <root>
        <mxCell id="0" />
        <mxCell id="1" parent="0" />
        <mxCell id="3ECiJDKW1C9SmvHT0A6R-30" style="rounded=0;orthogonalLoop=1;jettySize=auto;html=1;entryX=0.5;entryY=0;entryDx=0;entryDy=0;dashed=1;fillColor=#dae8fc;strokeColor=#6c8ebf;" edge="1" parent="1" source="3ECiJDKW1C9SmvHT0A6R-2" target="3ECiJDKW1C9SmvHT0A6R-28">
          <mxGeometry relative="1" as="geometry" />
        </mxCell>
        <mxCell id="3ECiJDKW1C9SmvHT0A6R-2" value="&lt;p style=&quot;white-space-collapse: preserve;&quot; dir=&quot;auto&quot;&gt;Đặt phòng&lt;/p&gt;" style="ellipse;whiteSpace=wrap;html=1;fillColor=#dae8fc;strokeColor=#6c8ebf;" vertex="1" parent="1">
          <mxGeometry x="280" y="110" width="140" height="70" as="geometry" />
        </mxCell>
        <mxCell id="3ECiJDKW1C9SmvHT0A6R-3" value="&lt;p style=&quot;white-space-collapse: preserve;&quot; dir=&quot;auto&quot;&gt;Hủy đặt phòng&lt;/p&gt;" style="ellipse;whiteSpace=wrap;html=1;fillColor=#dae8fc;strokeColor=#6c8ebf;" vertex="1" parent="1">
          <mxGeometry x="343" y="340" width="140" height="70" as="geometry" />
        </mxCell>
        <mxCell id="3ECiJDKW1C9SmvHT0A6R-4" value="&lt;p style=&quot;white-space-collapse: preserve;&quot; dir=&quot;auto&quot;&gt;Thanh toán&lt;/p&gt;" style="ellipse;whiteSpace=wrap;html=1;fillColor=#dae8fc;strokeColor=#6c8ebf;" vertex="1" parent="1">
          <mxGeometry x="343" y="500" width="140" height="70" as="geometry" />
        </mxCell>
        <mxCell id="3ECiJDKW1C9SmvHT0A6R-5" value="&lt;p style=&quot;white-space-collapse: preserve;&quot; dir=&quot;auto&quot;&gt;Xem thông tin phòng&lt;/p&gt;" style="ellipse;whiteSpace=wrap;html=1;fillColor=#dae8fc;strokeColor=#6c8ebf;" vertex="1" parent="1">
          <mxGeometry x="40" y="430" width="140" height="70" as="geometry" />
        </mxCell>
        <mxCell id="3ECiJDKW1C9SmvHT0A6R-6" value="&lt;p style=&quot;white-space-collapse: preserve;&quot; dir=&quot;auto&quot;&gt;Quản lý phòng (cập nhật trạng thái)&lt;/p&gt;" style="ellipse;whiteSpace=wrap;html=1;fillColor=#d5e8d4;strokeColor=#82b366;" vertex="1" parent="1">
          <mxGeometry x="90" y="830" width="140" height="70" as="geometry" />
        </mxCell>
        <mxCell id="3ECiJDKW1C9SmvHT0A6R-7" value="&lt;p style=&quot;white-space-collapse: preserve;&quot; dir=&quot;auto&quot;&gt;Quản lý thanh toán&lt;/p&gt;" style="ellipse;whiteSpace=wrap;html=1;fillColor=#d5e8d4;strokeColor=#82b366;" vertex="1" parent="1">
          <mxGeometry x="80" y="690" width="140" height="70" as="geometry" />
        </mxCell>
        <mxCell id="3ECiJDKW1C9SmvHT0A6R-8" value="&lt;p style=&quot;white-space-collapse: preserve;&quot; dir=&quot;auto&quot;&gt;Quản lý đặt phòng&lt;/p&gt;" style="ellipse;whiteSpace=wrap;html=1;fillColor=#d5e8d4;strokeColor=#82b366;" vertex="1" parent="1">
          <mxGeometry x="80" y="570" width="140" height="70" as="geometry" />
        </mxCell>
        <mxCell id="3ECiJDKW1C9SmvHT0A6R-10" value="&lt;p style=&quot;white-space-collapse: preserve;&quot; dir=&quot;auto&quot;&gt;Quản lý nhân viên&lt;/p&gt;" style="ellipse;whiteSpace=wrap;html=1;fillColor=#fff2cc;strokeColor=#d6b656;" vertex="1" parent="1">
          <mxGeometry x="610" y="310" width="140" height="70" as="geometry" />
        </mxCell>
        <mxCell id="3ECiJDKW1C9SmvHT0A6R-11" value="&lt;p style=&quot;white-space-collapse: preserve;&quot; dir=&quot;auto&quot;&gt;Xem báo cáo&lt;/p&gt;" style="ellipse;whiteSpace=wrap;html=1;fillColor=#fff2cc;strokeColor=#d6b656;" vertex="1" parent="1">
          <mxGeometry x="630" y="520" width="140" height="70" as="geometry" />
        </mxCell>
        <mxCell id="3ECiJDKW1C9SmvHT0A6R-15" style="rounded=0;orthogonalLoop=1;jettySize=auto;html=1;exitX=1;exitY=0.3333333333333333;exitDx=0;exitDy=0;exitPerimeter=0;entryX=0;entryY=0.5;entryDx=0;entryDy=0;fillColor=#dae8fc;strokeColor=#6c8ebf;" edge="1" parent="1" source="3ECiJDKW1C9SmvHT0A6R-12" target="3ECiJDKW1C9SmvHT0A6R-2">
          <mxGeometry relative="1" as="geometry">
            <Array as="points" />
          </mxGeometry>
        </mxCell>
        <mxCell id="3ECiJDKW1C9SmvHT0A6R-16" style="rounded=0;orthogonalLoop=1;jettySize=auto;html=1;entryX=0;entryY=0.5;entryDx=0;entryDy=0;fillColor=#dae8fc;strokeColor=#6c8ebf;" edge="1" parent="1" source="3ECiJDKW1C9SmvHT0A6R-12" target="3ECiJDKW1C9SmvHT0A6R-3">
          <mxGeometry relative="1" as="geometry" />
        </mxCell>
        <mxCell id="3ECiJDKW1C9SmvHT0A6R-18" style="rounded=0;orthogonalLoop=1;jettySize=auto;html=1;fillColor=#dae8fc;strokeColor=#6c8ebf;" edge="1" parent="1" source="3ECiJDKW1C9SmvHT0A6R-12" target="3ECiJDKW1C9SmvHT0A6R-5">
          <mxGeometry relative="1" as="geometry">
            <Array as="points">
              <mxPoint x="80" y="270" />
              <mxPoint x="70" y="300" />
            </Array>
          </mxGeometry>
        </mxCell>
        <mxCell id="3ECiJDKW1C9SmvHT0A6R-29" style="rounded=0;orthogonalLoop=1;jettySize=auto;html=1;entryX=0;entryY=0.5;entryDx=0;entryDy=0;fillColor=#dae8fc;strokeColor=#6c8ebf;" edge="1" parent="1" source="3ECiJDKW1C9SmvHT0A6R-12" target="3ECiJDKW1C9SmvHT0A6R-28">
          <mxGeometry relative="1" as="geometry" />
        </mxCell>
        <mxCell id="3ECiJDKW1C9SmvHT0A6R-12" value="Khách hàng&lt;div&gt;&lt;br&gt;&lt;/div&gt;" style="shape=umlActor;verticalLabelPosition=bottom;verticalAlign=top;html=1;" vertex="1" parent="1">
          <mxGeometry x="120" y="190" width="30" height="60" as="geometry" />
        </mxCell>
        <mxCell id="3ECiJDKW1C9SmvHT0A6R-19" style="rounded=0;orthogonalLoop=1;jettySize=auto;html=1;entryX=1;entryY=0.5;entryDx=0;entryDy=0;fillColor=#d5e8d4;strokeColor=#82b366;" edge="1" parent="1" source="3ECiJDKW1C9SmvHT0A6R-13" target="3ECiJDKW1C9SmvHT0A6R-8">
          <mxGeometry relative="1" as="geometry" />
        </mxCell>
        <mxCell id="3ECiJDKW1C9SmvHT0A6R-20" style="rounded=0;orthogonalLoop=1;jettySize=auto;html=1;entryX=1;entryY=0.5;entryDx=0;entryDy=0;fillColor=#d5e8d4;strokeColor=#82b366;" edge="1" parent="1" source="3ECiJDKW1C9SmvHT0A6R-13" target="3ECiJDKW1C9SmvHT0A6R-7">
          <mxGeometry relative="1" as="geometry" />
        </mxCell>
        <mxCell id="3ECiJDKW1C9SmvHT0A6R-13" value="&lt;div&gt;Nhân viên&lt;br&gt;&lt;br&gt;&lt;/div&gt;" style="shape=umlActor;verticalLabelPosition=bottom;verticalAlign=top;html=1;" vertex="1" parent="1">
          <mxGeometry x="490" y="660" width="30" height="60" as="geometry" />
        </mxCell>
        <mxCell id="3ECiJDKW1C9SmvHT0A6R-23" style="rounded=0;orthogonalLoop=1;jettySize=auto;html=1;entryX=0;entryY=0.5;entryDx=0;entryDy=0;fillColor=#fff2cc;strokeColor=#d6b656;" edge="1" parent="1" source="3ECiJDKW1C9SmvHT0A6R-14" target="3ECiJDKW1C9SmvHT0A6R-10">
          <mxGeometry relative="1" as="geometry" />
        </mxCell>
        <mxCell id="3ECiJDKW1C9SmvHT0A6R-24" style="rounded=0;orthogonalLoop=1;jettySize=auto;html=1;entryX=0;entryY=0.5;entryDx=0;entryDy=0;fillColor=#fff2cc;strokeColor=#d6b656;" edge="1" parent="1" source="3ECiJDKW1C9SmvHT0A6R-14" target="3ECiJDKW1C9SmvHT0A6R-11">
          <mxGeometry relative="1" as="geometry" />
        </mxCell>
        <mxCell id="3ECiJDKW1C9SmvHT0A6R-14" value="&lt;div&gt;Quản lý&lt;br&gt;&lt;br&gt;&lt;/div&gt;" style="shape=umlActor;verticalLabelPosition=bottom;verticalAlign=top;html=1;" vertex="1" parent="1">
          <mxGeometry x="500" y="380" width="30" height="60" as="geometry" />
        </mxCell>
        <mxCell id="3ECiJDKW1C9SmvHT0A6R-17" style="rounded=0;orthogonalLoop=1;jettySize=auto;html=1;entryX=0.029;entryY=0.374;entryDx=0;entryDy=0;entryPerimeter=0;exitX=0.5;exitY=0.5;exitDx=0;exitDy=0;exitPerimeter=0;fillColor=#dae8fc;strokeColor=#6c8ebf;" edge="1" parent="1" source="3ECiJDKW1C9SmvHT0A6R-12" target="3ECiJDKW1C9SmvHT0A6R-4">
          <mxGeometry relative="1" as="geometry">
            <mxPoint x="160" y="230" as="sourcePoint" />
          </mxGeometry>
        </mxCell>
        <mxCell id="3ECiJDKW1C9SmvHT0A6R-21" style="rounded=0;orthogonalLoop=1;jettySize=auto;html=1;entryX=1.006;entryY=0.409;entryDx=0;entryDy=0;entryPerimeter=0;fillColor=#d5e8d4;strokeColor=#82b366;" edge="1" parent="1" source="3ECiJDKW1C9SmvHT0A6R-13" target="3ECiJDKW1C9SmvHT0A6R-6">
          <mxGeometry relative="1" as="geometry" />
        </mxCell>
        <mxCell id="3ECiJDKW1C9SmvHT0A6R-25" style="rounded=0;orthogonalLoop=1;jettySize=auto;html=1;exitX=0;exitY=1;exitDx=0;exitDy=0;entryX=0.678;entryY=0.088;entryDx=0;entryDy=0;entryPerimeter=0;dashed=1;fillColor=#dae8fc;strokeColor=#6c8ebf;" edge="1" parent="1" source="3ECiJDKW1C9SmvHT0A6R-2" target="3ECiJDKW1C9SmvHT0A6R-5">
          <mxGeometry relative="1" as="geometry" />
        </mxCell>
        <mxCell id="3ECiJDKW1C9SmvHT0A6R-26" style="rounded=0;orthogonalLoop=1;jettySize=auto;html=1;entryX=0.917;entryY=0.239;entryDx=0;entryDy=0;entryPerimeter=0;dashed=1;" edge="1" parent="1" source="3ECiJDKW1C9SmvHT0A6R-4" target="3ECiJDKW1C9SmvHT0A6R-8">
          <mxGeometry relative="1" as="geometry" />
        </mxCell>
        <mxCell id="3ECiJDKW1C9SmvHT0A6R-27" style="rounded=0;orthogonalLoop=1;jettySize=auto;html=1;exitX=0;exitY=1;exitDx=0;exitDy=0;entryX=0.782;entryY=0.159;entryDx=0;entryDy=0;entryPerimeter=0;dashed=1;" edge="1" parent="1" source="3ECiJDKW1C9SmvHT0A6R-3" target="3ECiJDKW1C9SmvHT0A6R-8">
          <mxGeometry relative="1" as="geometry" />
        </mxCell>
        <mxCell id="3ECiJDKW1C9SmvHT0A6R-28" value="&lt;p style=&quot;white-space-collapse: preserve;&quot; dir=&quot;auto&quot;&gt;Tìm phòng&lt;/p&gt;" style="ellipse;whiteSpace=wrap;html=1;fillColor=#dae8fc;strokeColor=#6c8ebf;" vertex="1" parent="1">
          <mxGeometry x="380" y="220" width="140" height="70" as="geometry" />
        </mxCell>
      </root>
    </mxGraphModel>
  </diagram>
</mxfile>
